<svg xmlns="http://www.w3.org/2000/svg" width="60.976" height="60.976" viewBox="0 0 60.976 60.976">
    <defs>
        <!-- <style>.a{fill:#113e82;}</style> -->
    </defs>
    <path style="fill:#113e82;" class="a" d="M30.488,0A30.488,30.488,0,1,0,60.976,30.488,30.522,30.522,0,0,0,30.488,0Zm0,58.435A27.947,27.947,0,1,1,58.435,30.488,27.98,27.98,0,0,1,30.488,58.435Z"/>
    <g transform="translate(22.978 40.65)">
        <path style="fill:#113e82;" class="a" d="M227.344,341.333H194.208a1.27,1.27,0,0,0,0,2.541h33.135a1.27,1.27,0,0,0,0-2.541Z" transform="translate(-192.938 -341.333)"/>
    </g>
    <g transform="translate(16.466 29.101)">
        <path style="fill:#113e82;" class="a" d="M157.075,274.1,140.643,245a1.271,1.271,0,1,0-2.213,1.253l16.43,29.1a1.276,1.276,0,0,0,1.108.645,1.254,1.254,0,0,0,.628-.165A1.273,1.273,0,0,0,157.075,274.1Z" transform="translate(-138.265 -244.351)"/>
    </g>
    <g transform="translate(6.23 17.785)">
        <path style="fill:#113e82;" class="a" d="M70.844,149.5a1.273,1.273,0,0,0-1.73.483L52.478,179.452a1.272,1.272,0,0,0,.48,1.733,1.289,1.289,0,0,0,.625.163,1.269,1.269,0,0,0,1.105-.645L71.324,151.23A1.272,1.272,0,0,0,70.844,149.5Z" transform="translate(-52.313 -149.335)"/>
    </g>
    <g transform="translate(2.378 17.785)">
        <path style="fill:#113e82;" class="a" d="M54.32,149.333H21.238a1.27,1.27,0,0,0,0,2.541H54.318a1.27,1.27,0,1,0,0-2.541Z" transform="translate(-19.968 -149.333)"/>
    </g>
    <g transform="translate(25.552 0.227)">
        <path style="fill:#113e82;" class="a" d="M233.356,31.636,216.931,2.551A1.271,1.271,0,1,0,214.718,3.8L231.14,32.889a1.276,1.276,0,0,0,1.108.645,1.254,1.254,0,0,0,.628-.165A1.273,1.273,0,0,0,233.356,31.636Z" transform="translate(-214.553 -1.907)"/>
    </g>
    <g transform="translate(35.569 11.211)">
        <path style="fill:#113e82;" class="a" d="M317.229,94.3a1.27,1.27,0,0,0-1.733.48l-16.662,29.438a1.271,1.271,0,0,0,2.213,1.253l16.662-29.438A1.273,1.273,0,0,0,317.229,94.3Z" transform="translate(-298.67 -94.139)"/>
    </g>
</svg>