<svg xmlns="http://www.w3.org/2000/svg" width="65.955" height="57.807" viewBox="0 0 65.955 57.807">
    <defs>
        <!-- <style>.a{fill:#113e82;}</style> -->
    </defs>
    <g transform="translate(0 -26.576)">
        <g transform="translate(0 26.576)">
            <g transform="translate(0 0)">
                <path style="fill:#113e82" class="a" d="M180.717,159.668a6.728,6.728,0,1,0,6.728,6.728A6.728,6.728,0,0,0,180.717,159.668Zm0,10.252a3.524,3.524,0,0,1,0-7.048h0a3.524,3.524,0,1,1,0,7.048Z" transform="translate(-147.316 -139.265)"/>
                <path style="fill:#113e82" class="a" d="M60.231,31.6,16.5,26.636A6.006,6.006,0,0,0,11.776,28a6.087,6.087,0,0,0-2.323,4.165l-.8,6.568H6.169A6.436,6.436,0,0,0,0,45.377V78.135A6.087,6.087,0,0,0,5.926,84.38q.121,0,.243,0H50.14c3.524,0,6.728-2.723,6.728-6.247V76.853a8.009,8.009,0,0,0,3.043-1.281,6.648,6.648,0,0,0,2.323-4.325l3.684-32.517A6.488,6.488,0,0,0,60.231,31.6ZM53.664,78.135c0,1.762-1.762,3.043-3.524,3.043H6.169a2.883,2.883,0,0,1-2.967-2.8q0-.123,0-.246V72.208l12.414-9.13a3.845,3.845,0,0,1,4.966.24l8.73,7.689a7.529,7.529,0,0,0,4.726,1.762,7.288,7.288,0,0,0,3.844-1.041L53.664,62.6V78.135Zm0-19.3L36.2,69a4.085,4.085,0,0,1-4.726-.4l-8.81-7.769a7.128,7.128,0,0,0-8.89-.32L3.206,68.2V45.377a3.233,3.233,0,0,1,2.963-3.444H50.14a3.684,3.684,0,0,1,3.524,3.444V58.832ZM62.717,38.3c0,.011,0,.021,0,.032L58.95,70.846a2.723,2.723,0,0,1-1.041,2.162c-.32.32-1.041.481-1.041.641V45.377a6.888,6.888,0,0,0-6.728-6.648H11.856l.721-6.247a3.684,3.684,0,0,1,1.2-2.082,3.684,3.684,0,0,1,2.4-.641L59.831,34.8A3.2,3.2,0,0,1,62.717,38.3Z" transform="translate(0 -26.576)"/>
            </g>
        </g>
    </g>
</svg>