<svg width="74" height="83" viewBox="0 0 74 83" fill="none" xmlns="http://www.w3.org/2000/svg">
<path d="M65.7039 9.11762H61.6034V0.916504H53.4022V9.11762H20.5978V0.916504H12.3967V9.11762H8.29609C3.78547 9.11762 0.0949707 12.8081 0.0949707 17.3187V74.7266C0.0949707 79.2372 3.78547 82.9277 8.29609 82.9277H65.7039C70.2145 82.9277 73.9051 79.2372 73.9051 74.7266V17.3187C73.9051 12.8081 70.2145 9.11762 65.7039 9.11762ZM65.7039 74.7266H8.29609V33.721H65.7039V74.7266ZM8.29609 25.5199V17.3187H65.7039V25.5199H8.29609ZM16.4972 41.9221H57.5028V50.1232H16.4972V41.9221ZM16.4972 58.3243H45.2011V66.5255H16.4972V58.3243Z" fill="#C7C7C7"/>
</svg>
